<?xml version="1.0" encoding="UTF-8"?>
<!-- Created with Inkscape (http://www.inkscape.org/) -->
<svg width="512" height="512" version="1.1" viewBox="0 0 512 512" xmlns="http://www.w3.org/2000/svg">
 <path d="m269.16 249.52q6.4-0.64 17.92 3.2 1.92-1.28 3.84 2.56 1.28 11.52 6.4 21.76 0.64 3.2-0.64 5.76 3.84 2.56 1.92 6.4-1.28 3.2-5.76 4.48-5.76 5.76-12.16 9.6 6.4 3.84 23.04 10.88 19.2 8.32 28.8 14.72 5.12 5.76 11.52 9.6 5.12 0.64 5.76 6.4 3.2 4.48 6.4 8.32 3.84 2.56 3.84 6.4t1.28 7.04q-0.64 2.56 1.92 4.48t2.56 3.84q-1.28 1.92-1.28 5.12 0 4.48-1.28 5.12l-15.36 14.08q-26.88 24.96-56.32 48-3.2 4.48-6.4 6.4-2.56 3.84-8.96 11.52-7.68 3.2-11.52 7.04-28.8 17.92-60.16 28.16-0.64 0.64-7.04-1.28-10.88-3.84-22.4-8.32-9.6 0-16.64-10.88-0.64-1.92-3.2-1.92-1.92 0.64-1.92-1.28 7.04-8.32 16-14.72 18.56-7.04 35.84-16 3.84 0 3.84-1.92 8.32-6.4 16-13.44 5.76-1.28 21.76-11.52 3.84-5.12 16-12.8 8.96-5.76 13.44-10.24 14.72-11.52 28.16-25.6-13.44-7.68-40.32-24.32-14.72-8.96-28.16-19.2-15.36 7.68-31.36 15.36 5.12 4.48 12.8 7.68 12.16 7.68 19.84 19.2-1.28 5.12 4.48 17.92 1.92 1.28 0.64 3.84-0.64 2.56 0.64 3.2 1.28 6.4-3.84 8.32-4.48 1.28-9.6 1.92-8.32-1.28-24.96-8.96-12.16-5.76-19.2-7.68-12.16-5.12-35.2-22.4-2.56 0.64-5.12 1.28-7.68-2.56-11.52-0.64-18.56 8.96-32-10.24-3.84-10.24-7.68-20.48-2.56-1.92-0.64-3.84 2.56-1.92 3.84-4.48 12.16-12.8 35.84-22.4 8.96-3.2 40.96-13.44 46.72-22.4 95.36-41.6zm115.2-229.12q1.92-0.64 3.84 1.92 1.92 1.92 3.84 1.28 2.56 0.64 5.76 1.92 3.2 0.64 3.2 4.48 2.56 1.92 2.56 7.68-1.92 23.68-3.84 46.72 0 1.28 1.28 1.92 1.92 0 3.2 0.64 14.72 3.2 28.8 8.96 9.6 3.84 10.88 20.48 2.56 5.12 6.4 11.52 4.48 6.4-1.92 12.16-1.92 0-4.48 1.28-1.28 1.28-5.12 1.28-2.56 0-3.84 1.28-3.2 1.92-6.4 3.2-1.28 1.28-10.88-0.64-7.68-1.92-3.84 3.84 6.4 9.6 14.08 19.2 11.52 16 18.56 33.28-4.48 7.68-2.56 18.56 2.56 5.12-0.64 10.88t-8.96 4.48q-3.2 3.84-8.32-1.28-9.6-8.32-17.28-19.2-11.52-14.08-16.64-21.76-0.64-1.92-1.92-1.28-0.64 0-0.64 1.28-2.56 15.36-4.48 23.04-3.2 5.76-7.04 3.2-4.48 0.64-8.96 1.28-3.2 7.04-7.04 14.08-5.12 3.84-10.88-0.64-7.68-7.68-16.64-6.4-5.76 0-6.4-6.4 0-7.04-0.64-11.52 1.28-1.92 4.48-22.4 1.28-5.12 1.28-10.24-0.64-0.64-2.56 0.64-16 9.6-30.08 21.12-4.48 3.2-8.96 7.04-3.84 3.2-8.96 1.28-6.4 0.64-11.52-3.2-0.64-1.28-4.48-2.56-3.2-1.28-4.48-3.84-0.64-1.28-1.92-3.2 0-2.56 1.92-3.84 0-0.64-1.92-0.64 0.64-1.92-3.2-3.84-2.56-3.2 0-7.04 19.2-29.44 48.64-48.64-10.88-3.84-17.28-23.04-1.28-2.56 1.28-5.12t1.92-5.12q-0.64-3.2-1.92-6.4-1.28-1.28-1.92-2.56-0.64-1.92 1.28-2.56 2.56 0.64 5.12 0.64 2.56-1.92 1.28-5.76 3.2-3.2 1.28-3.84 8.96-6.4 23.68-5.76 3.2 0 24.96 3.84 4.48-15.36 10.24-31.36 0.64-4.48 0.64-9.6-0.64-1.28-1.92-3.2 0-1.92 1.92-1.92 2.56 0 3.84-1.28 1.28 0 2.56-3.2 1.92-3.84 3.84-4.48 8.96 0.64 17.92-0.64zm-248.32-8.96q9.6 1.28 12.16 8.32 1.92 10.88 5.76 21.12 0.64 1.92 1.92 8.32 1.28 7.68 4.48 10.88 24.96-8.32 53.12-3.2 5.76 0 7.68 5.76 1.28 4.48-1.28 9.6-1.92 1.92 0.64 5.76 3.2 3.2 3.2 5.12 1.92 1.28 2.56 3.2 0.64 1.28-1.28 2.56-6.4 8.96-15.36 17.28-5.76 4.48-23.68 8.32-1.28 0-1.28 3.84 1.28 7.68 2.56 15.36 19.2 4.48 38.4 12.16 6.4 5.76 3.2 14.72 2.56 2.56 2.56 9.6 1.92 1.92 2.56 3.2-3.2 7.68-11.52 8.32-8.32 0-16 1.28-1.28-0.64-2.56-0.64-3.84 0-3.2 3.2 0 19.2-1.28 22.4-1.92 0-2.56 3.2-0.64 2.56-2.56 2.56-1.92 1.92-4.48 2.56-1.92 0-1.92 3.2 1.92 6.4-3.2 15.36-2.56 2.56-5.12 1.28-2.56-1.92-5.76-2.56-5.12-3.2-6.4 0-1.28 2.56-2.56 6.4-0.64 3.84-4.48 1.92l-5.12-0.64q-1.28 0.64-4.48-1.92-2.56-3.2-5.12-2.56-6.4-16.64-8.32-34.56-1.92-18.56-5.12-35.84-1.92-0.64-3.84 3.2-1.92 5.12-4.48 9.6-5.12 6.4-8.96 14.08-7.68 12.16-14.08 16-17.92 10.24-28.8 1.28 1.28-1.28 0.64-1.92 0-0.64-1.28-1.28 0-3.2-2.56-4.48-2.56-1.92-5.12-3.84-3.2 0-3.84-1.92 1.92-4.48 6.4-8.96 5.76-12.16 30.72-47.36 1.92-1.92 1.92-3.84-19.84 11.52-34.56-16 1.92-5.12 3.2-10.88 0.64-1.28-1.92-2.56t-1.92-2.56q21.76-17.28 48-26.24 1.92-0.64 3.84-1.28t0.64-3.2q-1.28-16.64-2.56-33.92-0.64-10.24-4.48-19.84 3.84 0 3.2-1.92 0.64-1.92 3.2-1.92 3.2 0 3.84-0.64 0.64-1.28 1.92-1.28t1.92 1.92q0.64 0.64 1.28 0.64 1.92-3.2 3.84-2.56 3.84-1.28 7.68-3.2z" fill="#007fff" aria-label="梦"/>
</svg>
