<?xml version="1.0" encoding="UTF-8" standalone="no"?>
<svg width="1024" height="1024" viewBox="0 0 1024 1024" xmlns="http://www.w3.org/2000/svg">
    <path
        d="m 531.11536,494.28341 q 11.6205,-1.16205 32.5374,5.81025 3.48615,-2.3241 6.9723,4.6482 2.3241,20.91691 11.6205,39.50971 1.16205,5.81025 -1.16205,10.45845 6.9723,4.6482 3.48615,11.6205 -2.3241,5.81025 -10.45845,8.13435 -10.45845,10.45845 -22.07895,17.43075 11.6205,6.9723 41.83381,19.75485 34.8615,15.10665 52.29225,26.72715 9.2964,10.45845 20.9169,17.43075 9.2964,1.16205 10.45845,11.6205 5.81025,8.13435 11.6205,15.10665 6.9723,4.6482 6.9723,11.6205 0,6.9723 2.3241,12.78255 -1.16205,4.6482 3.48615,8.13435 4.6482,3.48615 4.6482,6.9723 -2.3241,3.48615 -2.3241,9.2964 0,8.13435 -2.3241,9.2964 l -27.8892,25.56511 q -48.8061,45.31995 -102.26041,87.15375 -5.81025,8.13435 -11.6205,11.6205 -4.6482,6.9723 -16.2687,20.9169 -13.9446,5.81025 -20.9169,12.78255 -52.29225,32.5374 -109.2327,51.1302 -1.16205,1.16205 -12.78255,-2.3241 -19.75485,-6.9723 -40.67175,-15.10665 -17.43076,0 -30.21331,-19.75485 -1.16205,-3.48615 -5.81025,-3.48615 -3.48615,1.16205 -3.48615,-2.3241 12.78255,-15.10665 29.05125,-26.72715 33.69946,-12.78255 65.07481,-29.05125 6.9723,0 6.9723,-3.48615 15.10665,-11.6205 29.05125,-24.40305 10.45845,-2.3241 39.5097,-20.9169 6.9723,-9.2964 29.05125,-23.241 16.2687,-10.45845 24.40305,-18.59281 26.72715,-20.9169 51.13021,-46.482 -24.40306,-13.9446 -73.20916,-44.1579 -26.72715,-16.2687 -51.1302,-34.8615 -27.8892,13.9446 -56.94045,27.8892 9.2964,8.13435 23.241,13.9446 22.07895,13.9446 36.02355,34.8615 -2.3241,9.2964 8.13435,32.5374 3.48615,2.3241 1.16205,6.9723 -1.16205,4.6482 1.16205,5.81025 2.3241,11.62051 -6.9723,15.10666 -8.13435,2.3241 -17.43075,3.48615 -15.10665,-2.3241 -45.31995,-16.26871 -22.07895,-10.45845 -34.8615,-13.9446 -22.07895,-9.2964 -63.91276,-40.67175 -4.6482,1.16205 -9.2964,2.3241 -13.9446,-4.6482 -20.9169,-1.16205 -33.69945,16.2687 -58.1025,-18.5928 -6.9723,-18.5928 -13.9446,-37.1856 -4.6482,-3.48615 -1.16205,-6.9723 4.6482,-3.48615 6.9723,-8.13435 22.07895,-23.241 65.0748,-40.67175 16.2687,-5.81025 74.37121,-24.40305 84.82965,-40.67175 173.14545,-75.53326 z M 740.28437,78.269496 q 3.48615,-1.16205 6.9723,3.48615 3.48615,3.486151 6.9723,2.324101 4.6482,1.16205 10.45845,3.48615 5.81025,1.16205 5.81025,8.13435 4.6482,3.48615 4.6482,13.944603 -3.48615,42.99585 -6.9723,84.82965 0,2.3241 2.3241,3.48615 3.48615,0 5.81025,1.16205 26.72715,5.81025 52.29225,16.2687 17.43076,6.9723 19.75486,37.1856 4.6482,9.2964 11.6205,20.9169 8.13435,11.62051 -3.48615,22.07896 -3.48615,0 -8.13435,2.3241 -2.3241,2.3241 -9.2964,2.3241 -4.6482,0 -6.9723,2.3241 -5.81026,3.48615 -11.62051,5.81025 -2.3241,2.3241 -19.75485,-1.16205 -13.9446,-3.48615 -6.9723,6.9723 11.6205,17.43075 25.5651,34.8615 20.91691,29.05125 33.69946,60.4266 -8.13435,13.9446 -4.6482,33.69945 4.6482,9.2964 -1.16205,19.75485 -5.81025,10.45845 -16.2687,8.13435 -5.81026,6.9723 -15.10666,-2.3241 -17.43075,-15.10665 -31.37535,-34.8615 -20.9169,-25.5651 -30.2133,-39.5097 -1.16205,-3.48615 -3.48615,-2.3241 -1.16205,0 -1.16205,2.3241 -4.6482,27.8892 -8.13435,41.8338 -5.81025,10.45845 -12.78255,5.81025 -8.13435,1.16205 -16.2687,2.3241 -5.81025,12.78255 -12.78255,25.5651 -9.2964,6.9723 -19.75485,-1.16205 -13.9446,-13.9446 -30.2133,-11.6205 -10.45845,0 -11.6205,-11.6205 0,-12.78255 -1.16205,-20.9169 2.3241,-3.48615 8.13435,-40.67175 2.3241,-9.2964 2.3241,-18.5928 -1.16205,-1.16205 -4.6482,1.16205 -29.05125,17.43075 -54.61636,38.34765 -8.13435,5.81025 -16.2687,12.78255 -6.9723,5.81025 -16.2687,2.3241 -11.6205,1.16205 -20.9169,-5.81025 -1.16205,-2.3241 -8.13435,-4.6482 -5.81025,-2.3241 -8.13435,-6.9723 -1.16205,-2.3241 -3.48615,-5.81025 0,-4.6482 3.48615,-6.9723 0,-1.16205 -3.48615,-1.16205 1.16205,-3.48615 -5.81025,-6.9723 -4.6482,-5.81025 0,-12.78255 34.8615,-53.4543 88.31581,-88.31581 -19.75486,-6.9723 -31.37536,-41.8338 -2.3241,-4.6482 2.3241,-9.2964 4.6482,-4.6482 3.48615,-9.2964 -1.16205,-5.81025 -3.48615,-11.6205 -2.3241,-2.3241 -3.48615,-4.6482 -1.16205,-3.48615 2.3241,-4.6482 4.6482,1.16205 9.2964,1.16205 4.6482,-3.48615 2.3241,-10.45845 5.81025,-5.81025 2.3241,-6.9723 16.26871,-11.6205 42.99586,-10.45845 5.81025,0 45.31995,6.9723 8.13435,-27.8892 18.5928,-56.94045 1.16205,-8.13435 1.16205,-17.43075 -1.16205,-2.3241 -3.48615,-5.810253 0,-3.48615 3.48615,-3.48615 4.6482,0 6.9723,-2.3241 2.3241,0 4.6482,-5.81025 3.48615,-6.972301 6.9723,-8.134351 16.2687,1.16205 32.5374,-1.16205 z m -450.87542,-16.2687 q 17.43075,2.3241 22.07895,15.10665 3.48615,19.754851 10.45845,38.347654 1.16205,3.48615 3.48615,15.10665 2.3241,13.9446 8.13435,19.75485 45.31996,-15.10665 96.45016,-5.81025 10.45845,0 13.9446,10.45845 2.3241,8.13435 -2.3241,17.43075 -3.48615,3.48615 1.16205,10.45845 5.81025,5.81025 5.81025,9.2964 3.48615,2.3241 4.6482,5.81025 1.16205,2.3241 -2.3241,4.6482 -11.6205,16.2687 -27.8892,31.37535 -10.45845,8.13435 -42.99585,15.10665 -2.3241,0 -2.3241,6.9723 2.3241,13.9446 4.6482,27.8892 34.8615,8.13436 69.723,22.07896 11.6205,10.45845 5.81025,26.72715 4.6482,4.6482 4.6482,17.43075 3.48615,3.48615 4.6482,5.81025 -5.81025,13.9446 -20.9169,15.10665 -15.10665,0 -29.05125,2.3241 -2.3241,-1.16205 -4.6482,-1.16205 -6.9723,0 -5.81025,5.81025 0,34.8615 -2.3241,40.67175 -3.48615,0 -4.6482,5.81025 -1.16205,4.6482 -4.6482,4.6482 -3.48615,3.48615 -8.13435,4.6482 -3.48615,0 -3.48615,5.81025 3.48615,11.6205 -5.81025,27.8892 -4.6482,4.6482 -9.2964,2.3241 -4.6482,-3.48615 -10.45845,-4.6482 -9.29641,-5.81025 -11.62051,0 -2.3241,4.6482 -4.6482,11.6205 -1.16205,6.9723 -8.13435,3.48615 l -9.2964,-1.16205 q -2.3241,1.16205 -8.13435,-3.48615 -4.6482,-5.81025 -9.2964,-4.6482 -11.6205,-30.2133 -15.10665,-62.7507 -3.48615,-33.69945 -9.2964,-65.0748 -3.48615,-1.16205 -6.9723,5.81025 -3.48615,9.2964 -8.13435,17.43075 -9.2964,11.6205 -16.2687,25.5651 -13.9446,22.07895 -25.5651,29.05125 -32.5374,18.5928 -52.29225,2.3241 2.3241,-2.3241 1.16205,-3.48615 0,-1.16205 -2.3241,-2.3241 0,-5.81025 -4.6482,-8.13435 -4.6482,-3.48615 -9.2964,-6.9723 -5.81025,0 -6.9723,-3.48615 3.48615,-8.13435 11.6205,-16.2687 10.45845,-22.07895 55.7784,-85.9917 3.48615,-3.48615 3.48615,-6.9723 -36.02355,20.9169 -62.7507,-29.05126 3.48615,-9.2964 5.81025,-19.75485 1.16205,-2.3241 -3.48615,-4.6482 -4.6482,-2.3241 -3.48615,-4.6482 39.5097,-31.37535 87.15375,-47.64405 3.48615,-1.16205 6.9723,-2.3241 3.48615,-1.16205 1.16205,-5.81025 -2.3241,-30.2133 -4.6482,-61.58865 -1.16205,-18.592803 -8.13435,-36.023554 6.9723,0 5.81025,-3.48615 1.16205,-3.48615 5.81025,-3.48615 5.81025,0 6.9723,-1.16205 1.16205,-2.3241 3.48615,-2.3241 2.3241,0 3.48615,3.48615 1.16205,1.16205 2.3241,1.16205 3.48615,-5.81025 6.9723,-4.6482 6.9723,-2.3241 13.9446,-5.81025 z"
        fill="#007fff" />
</svg>
